<?xml version="1.0" standalone="no"?>
<!DOCTYPE svg PUBLIC "-//W3C//DTD SVG 20010904//EN"
 "http://www.w3.org/TR/2001/REC-SVG-20010904/DTD/svg10.dtd">
<svg version="1.0" xmlns="http://www.w3.org/2000/svg"
 width="512.000000pt" height="512.000000pt" viewBox="0 0 512.000000 512.000000"
 preserveAspectRatio="xMidYMid meet">

<g transform="translate(0.000000,512.000000) scale(0.100000,-0.100000)"
fill="#000000" stroke="none">
<path d="M2436 5104 c-286 -69 -547 -414 -708 -937 -29 -96 -35 -107 -53 -102
-11 3 -76 17 -145 31 -620 127 -1046 24 -1200 -289 -63 -130 -73 -246 -34
-416 49 -213 223 -498 450 -740 l86 -91 -82 -87 c-345 -364 -520 -750 -466
-1026 70 -357 439 -528 1000 -462 110 13 321 51 391 70 18 5 24 -6 53 -102
162 -527 423 -869 713 -938 385 -90 743 262 951 938 29 96 35 107 53 102 11
-3 74 -16 140 -30 711 -145 1170 10 1251 424 54 273 -123 662 -466 1024 l-82
87 81 86 c233 245 405 528 455 746 39 169 29 285 -34 415 -154 313 -580 416
-1200 289 -69 -14 -134 -28 -145 -31 -18 -5 -24 6 -53 102 -209 678 -569 1031
-956 937z m270 -228 c195 -98 388 -408 504 -812 l18 -61 -111 -37 c-126 -43
-364 -137 -479 -190 l-78 -35 -78 35 c-115 53 -353 147 -479 190 l-111 37 18
61 c116 404 309 714 504 812 61 30 78 34 146 34 68 0 85 -4 146 -34z m-1426
-947 c96 -11 239 -37 319 -59 42 -11 43 -13 38 -43 -4 -18 -16 -81 -27 -142
-23 -122 -55 -351 -65 -462 l-7 -73 -66 -47 c-101 -71 -285 -216 -395 -311
l-99 -85 -45 44 c-121 117 -292 347 -360 484 -77 153 -109 318 -84 422 56 227
333 322 791 272z m2936 6 c187 -17 336 -100 395 -221 21 -43 24 -63 24 -154
-1 -89 -5 -117 -29 -185 -67 -189 -197 -388 -378 -580 l-85 -89 -99 85 c-111
96 -295 241 -396 312 l-66 47 -7 73 c-10 111 -42 340 -65 462 -11 61 -23 124
-27 142 -5 30 -4 32 38 43 78 21 222 48 319 59 163 19 223 20 376 6z m-2219
-184 c76 -28 180 -67 232 -89 l93 -39 -125 -67 c-69 -37 -195 -110 -279 -161
-84 -51 -154 -91 -156 -90 -4 4 24 205 43 315 23 129 36 180 46 180 5 0 71
-22 146 -49z m1292 2 c25 -112 76 -442 69 -448 -2 -1 -72 39 -156 90 -84 51
-210 124 -279 161 l-125 67 83 35 c104 43 370 141 386 142 6 0 16 -21 22 -47z
m-585 -312 c226 -118 526 -295 637 -376 l46 -33 6 -123 c8 -149 7 -598 -2
-729 l-6 -95 -70 -48 c-154 -106 -682 -408 -742 -423 -16 -4 -62 15 -158 65
-234 123 -525 295 -636 376 l-46 33 -6 123 c-9 157 -9 541 0 698 l6 123 46 33
c152 111 738 444 780 445 8 0 73 -31 145 -69z m-1188 -880 c0 -217 -4 -318
-11 -314 -51 30 -375 300 -375 313 0 13 369 320 384 320 1 0 2 -144 2 -319z
m2199 235 c126 -98 275 -226 275 -236 0 -13 -324 -283 -375 -313 -7 -4 -11 97
-11 313 0 216 4 317 11 313 5 -4 51 -38 100 -77z m-2612 -489 c133 -113 265
-216 368 -290 l67 -47 7 -72 c10 -112 42 -341 65 -463 11 -60 23 -124 27 -142
5 -30 3 -32 -33 -42 -171 -46 -370 -72 -544 -72 -153 -1 -240 12 -341 50 -327
123 -318 467 23 921 57 75 219 258 231 259 4 1 62 -45 130 -102z m3139 5 c185
-206 299 -383 364 -567 24 -68 28 -96 29 -185 0 -122 -17 -170 -88 -240 -148
-149 -493 -184 -921 -94 -148 31 -149 31 -143 67 4 18 16 82 27 142 23 122 55
351 65 463 l7 72 67 48 c105 74 267 202 381 300 58 50 110 91 115 91 6 0 49
-44 97 -97z m-2282 -612 c80 -48 194 -113 254 -145 l109 -58 -94 -39 c-134
-56 -378 -142 -385 -136 -11 12 -84 434 -84 490 0 5 12 2 28 -8 15 -10 92 -57
172 -104z m1380 -35 c-22 -157 -56 -334 -64 -343 -7 -6 -250 80 -385 136 l-93
39 140 76 c78 42 203 114 279 161 76 46 139 83 141 81 2 -2 -6 -69 -18 -150z
m-679 -331 c144 -64 323 -134 455 -179 l112 -38 -18 -61 c-116 -404 -309 -714
-504 -812 -61 -30 -78 -34 -146 -34 -68 0 -85 4 -146 34 -195 98 -388 408
-504 812 l-18 61 112 38 c128 43 369 139 477 190 41 19 75 34 75 35 1 0 48
-21 105 -46z"/>
<path d="M2412 3156 c-165 -40 -326 -172 -400 -327 -48 -99 -62 -162 -62 -269
0 -107 14 -170 62 -269 56 -118 161 -223 279 -279 99 -48 162 -62 269 -62 107
0 170 14 269 62 118 56 223 161 279 279 48 99 62 162 62 269 0 107 -14 170
-62 269 -32 66 -57 101 -117 162 -61 60 -96 85 -162 117 -46 22 -108 45 -137
51 -70 14 -213 13 -280 -3z m323 -230 c88 -44 155 -112 198 -204 29 -61 32
-76 32 -162 0 -86 -3 -101 -32 -162 -44 -94 -109 -160 -202 -206 -71 -35 -80
-37 -171 -37 -91 0 -100 2 -171 37 -93 46 -158 112 -202 206 -29 61 -32 76
-32 162 0 86 3 101 32 162 40 85 106 156 182 197 79 42 122 51 215 46 66 -3
91 -9 151 -39z"/>
</g>
</svg>
