<?xml version="1.0" standalone="no"?>
<!DOCTYPE svg PUBLIC "-//W3C//DTD SVG 20010904//EN"
 "http://www.w3.org/TR/2001/REC-SVG-20010904/DTD/svg10.dtd">
<svg version="1.0" xmlns="http://www.w3.org/2000/svg"
 width="900.000000pt" height="512.000000pt" viewBox="0 0 900.000000 512.000000"
 preserveAspectRatio="xMidYMid meet">

<g transform="translate(0.000000,512.000000) scale(0.100000,-0.100000)"
fill="#000000" stroke="none">
<path d="M5097 4509 c-26 -15 -47 -70 -47 -124 l0 -45 -50 0 c-63 0 -103 -20
-120 -59 -25 -61 12 -116 87 -127 24 -3 52 -4 62 -1 16 4 19 -3 24 -60 7 -93
53 -136 123 -113 40 14 64 60 64 127 l0 48 54 0 c61 0 99 17 115 52 35 76 -19
133 -125 133 l-44 0 0 44 c0 58 -16 101 -45 120 -28 18 -72 20 -98 5z"/>
<path d="M3458 4324 c-73 -39 -60 -142 21 -163 20 -5 122 -9 227 -8 177 2 194
4 214 22 53 48 45 126 -16 151 -49 21 -408 19 -446 -2z"/>
<path d="M4565 4241 c-11 -5 -29 -19 -40 -31 -19 -21 -20 -36 -20 -421 l0
-399 27 -27 c37 -37 89 -37 126 0 27 27 27 29 30 182 l3 155 820 0 819 0 0
-280 0 -280 -25 0 c-33 0 -142 -40 -199 -74 -135 -79 -245 -214 -293 -361 -48
-149 -33 -337 39 -480 85 -167 261 -299 451 -340 l27 -5 0 -275 0 -275 -645 0
-645 0 0 25 c0 13 -11 54 -24 89 -65 181 -216 333 -389 393 -233 82 -507 17
-673 -159 -72 -75 -143 -209 -162 -303 l-8 -40 -647 -3 -646 -2 -3 427 -3 428
-187 371 c-194 385 -213 414 -270 414 -38 0 -88 -48 -88 -84 0 -14 83 -193
185 -396 l185 -370 0 -460 0 -461 25 -24 24 -25 710 0 711 0 6 -27 c31 -143
91 -250 197 -349 153 -144 347 -201 553 -163 235 43 445 245 498 479 l13 55
705 3 705 2 27 26 26 27 0 338 0 339 28 6 c102 22 181 57 257 114 112 84 191
192 232 315 23 68 27 97 27 200 0 106 -3 130 -28 200 -72 208 -251 372 -456
419 l-55 13 -2 334 c-2 222 -7 341 -14 355 -6 12 -22 27 -36 33 -17 8 -279 11
-898 11 l-875 0 0 140 c0 164 -10 201 -60 219 -38 13 -38 13 -65 2z m1998
-1297 c160 -53 284 -199 307 -365 46 -322 -250 -586 -565 -504 -198 52 -335
230 -335 436 0 180 96 335 257 411 34 16 84 33 110 38 62 11 165 4 226 -16z
m-1991 -1280 c25 -10 56 -25 67 -33 21 -16 18 -19 -101 -138 l-123 -123 -125
125 -125 124 29 17 c16 9 55 26 85 36 71 23 222 19 293 -8z m-414 -550 l-126
-127 -23 44 c-65 128 -64 301 3 421 l22 39 126 -126 125 -125 -127 -126z m697
229 c18 -71 19 -142 1 -208 -12 -48 -51 -145 -58 -145 -7 0 -248 241 -248 247
0 4 55 63 122 130 l123 123 22 -45 c13 -24 30 -70 38 -102z m-195 -486 c0 -15
-107 -56 -176 -68 -51 -9 -84 -9 -138 0 -70 12 -176 52 -176 68 0 4 55 63 122
130 l123 123 122 -122 c68 -68 123 -126 123 -131z"/>
<path d="M6234 2776 c-22 -10 -35 -25 -44 -50 -11 -34 -7 -47 70 -241 86 -216
105 -245 160 -245 55 0 74 29 160 245 77 194 81 207 70 241 -9 26 -22 40 -47
50 -66 28 -110 -5 -149 -112 -15 -41 -30 -74 -33 -74 -4 0 -19 34 -35 75 -29
76 -70 125 -104 125 -9 -1 -31 -7 -48 -14z"/>
<path d="M4215 4061 c-56 -16 -75 -48 -75 -125 l0 -56 -889 0 -888 0 -27 -26
-26 -27 0 -494 0 -494 25 -24 c27 -28 88 -34 117 -11 35 26 38 62 38 482 l0
414 825 0 825 0 0 -56 c0 -87 27 -123 93 -124 28 0 44 7 62 26 25 27 25 27 25
243 0 236 -3 250 -57 268 -16 5 -37 7 -48 4z"/>
</g>
</svg>
