<?xml version="1.0" standalone="no"?>
<!DOCTYPE svg PUBLIC "-//W3C//DTD SVG 20010904//EN"
 "http://www.w3.org/TR/2001/REC-SVG-20010904/DTD/svg10.dtd">
<svg version="1.0" xmlns="http://www.w3.org/2000/svg"
 width="512.000000pt" height="512.000000pt" viewBox="0 0 512.000000 512.000000"
 preserveAspectRatio="xMidYMid meet">

<g transform="translate(0.000000,512.000000) scale(0.100000,-0.100000)"
fill="#000000" stroke="none">
<path d="M1125 4941 c-112 -52 -184 -210 -235 -518 -43 -262 -67 -569 -110
-1388 -61 -1173 -106 -1628 -200 -2020 -90 -377 -197 -535 -363 -535 l-57 0 0
-80 0 -80 80 0 80 0 0 -80 0 -80 80 0 80 0 0 80 0 80 160 0 160 0 0 -80 0 -80
80 0 80 0 0 80 0 80 160 0 160 0 0 -80 0 -80 80 0 80 0 0 80 0 80 160 0 160 0
0 -80 0 -80 80 0 80 0 0 80 0 80 160 0 160 0 0 -80 0 -80 80 0 80 0 0 80 0 80
160 0 160 0 0 -80 0 -80 80 0 80 0 0 80 0 80 160 0 160 0 0 -80 0 -80 80 0 80
0 0 80 0 80 160 0 160 0 0 -80 0 -80 80 0 80 0 0 80 0 80 160 0 160 0 0 -80 0
-80 80 0 80 0 0 80 0 80 160 0 160 0 0 -80 0 -80 80 0 80 0 0 80 0 80 80 0 80
0 0 80 0 80 -57 0 c-134 0 -222 94 -302 324 -132 374 -192 888 -261 2226 -61
1181 -102 1522 -207 1750 -53 117 -127 179 -214 180 -55 0 -135 -45 -181 -104
-97 -121 -176 -323 -373 -957 -112 -356 -259 -799 -289 -869 -14 -32 -15 -33
-16 -10 0 54 -51 655 -70 840 -72 682 -167 992 -331 1074 -136 67 -273 -4
-353 -185 -98 -223 -155 -583 -221 -1394 -14 -170 -25 -321 -25 -335 -1 -23
-2 -22 -16 10 -28 64 -164 471 -265 795 -186 595 -239 747 -318 903 -55 110
-109 174 -172 206 -62 31 -109 33 -164 7z m123 -172 c80 -82 145 -252 377
-989 162 -516 285 -871 375 -1082 l30 -70 -20 -216 c-49 -531 -95 -863 -159
-1155 -53 -241 -53 -240 -134 -302 -311 -233 -725 -400 -1115 -450 l-53 -7 45
83 c102 192 176 485 230 919 48 377 71 687 116 1535 42 798 67 1101 111 1374
34 214 65 318 112 369 28 30 49 28 85 -9z m1372 -8 c118 -124 188 -546 275
-1666 l34 -440 -51 -115 c-94 -213 -301 -610 -318 -610 -17 0 -224 397 -318
610 l-51 115 34 440 c91 1171 163 1583 291 1684 38 30 62 26 104 -18z m1337
17 c47 -51 78 -155 112 -369 44 -273 69 -576 111 -1374 43 -816 68 -1157 110
-1500 55 -445 134 -765 236 -954 l45 -83 -53 7 c-390 50 -804 217 -1115 450
-81 62 -81 61 -134 302 -65 293 -112 641 -159 1155 l-19 217 29 70 c90 210
213 565 375 1081 232 737 297 907 377 989 36 37 57 39 85 9z m-1708 -2625 c44
-87 110 -209 147 -271 l66 -112 -32 -51 c-86 -134 -404 -519 -417 -505 -3 2 5
51 16 108 25 121 54 297 75 458 16 115 56 488 56 516 0 8 2 14 5 14 2 0 40
-71 84 -157z m731 -58 c27 -266 65 -536 101 -724 17 -84 28 -155 26 -157 -4
-4 -120 121 -208 226 -62 74 -148 189 -204 272 l-37 57 66 113 c37 62 103 185
148 273 45 88 83 156 84 150 2 -5 12 -100 24 -210z m-314 -622 c132 -175 283
-343 417 -464 l111 -100 42 -104 c48 -119 90 -198 145 -272 l40 -53 -861 0
-861 0 40 53 c55 74 97 153 145 272 l42 103 103 92 c135 122 297 302 424 472
56 76 105 137 108 135 3 -1 51 -61 105 -134z m-1005 -771 c-27 -50 -102 -140
-139 -165 -65 -46 -107 -56 -227 -56 l-110 -1 80 34 c130 55 204 91 305 150
52 30 96 55 98 56 1 0 -2 -8 -7 -18z m1954 -75 c59 -32 255 -123 305 -140 8
-3 -34 -6 -95 -6 -161 0 -230 31 -313 144 -71 97 -73 103 -16 70 27 -16 81
-46 119 -68z"/>
</g>
</svg>
