<svg xmlns="http://www.w3.org/2000/svg" xmlns:xlink="http://www.w3.org/1999/xlink" width="500" zoomAndPan="magnify" viewBox="0 0 375 374.999991" height="500" preserveAspectRatio="xMidYMid meet" version="1.0"><defs><g/><clipPath id="5632788f02"><path d="M 199.132812 141.097656 L 241 141.097656 L 241 183 L 199.132812 183 Z M 199.132812 141.097656 " clip-rule="nonzero"/></clipPath></defs><g clip-path="url(#5632788f02)"><path fill="#000000" d="M 209.207031 172.890625 C 206.871094 171.070312 206.457031 167.699219 208.277344 165.363281 L 214.160156 157.828125 C 216.496094 159.652344 216.910156 163.019531 215.089844 165.355469 Z M 230.929688 151.167969 C 233.261719 152.992188 233.675781 156.363281 231.855469 158.695312 L 225.972656 166.230469 C 223.640625 164.410156 223.222656 161.039062 225.046875 158.703125 Z M 230.914062 172.890625 C 229.09375 175.226562 225.722656 175.640625 223.386719 173.820312 L 215.851562 167.9375 C 217.675781 165.601562 221.042969 165.1875 223.378906 167.011719 Z M 216.742188 157.050781 C 219.078125 158.875 222.445312 158.457031 224.269531 156.125 L 216.734375 150.242188 C 214.398438 148.417969 211.027344 148.835938 209.207031 151.167969 Z M 202.730469 166.058594 C 204.714844 166.058594 206.328125 164.449219 206.328125 162.460938 C 206.328125 160.476562 204.714844 158.867188 202.730469 158.867188 C 200.742188 158.867188 199.132812 160.476562 199.132812 162.460938 C 199.132812 164.449219 200.742188 166.058594 202.730469 166.058594 Z M 241 162.460938 C 241 160.476562 239.390625 158.867188 237.40625 158.867188 C 235.417969 158.867188 233.808594 160.476562 233.808594 162.460938 C 233.808594 164.449219 235.417969 166.058594 237.40625 166.058594 C 239.390625 166.058594 241 164.449219 241 162.460938 Z M 219.621094 182.964844 C 221.609375 182.964844 223.21875 181.355469 223.21875 179.367188 C 223.21875 177.382812 221.609375 175.769531 219.621094 175.769531 C 217.636719 175.769531 216.023438 177.382812 216.023438 179.367188 C 216.023438 181.355469 217.636719 182.964844 219.621094 182.964844 Z M 224.097656 144.691406 C 224.097656 146.679688 222.488281 148.289062 220.5 148.289062 C 218.511719 148.289062 216.902344 146.679688 216.902344 144.691406 C 216.902344 142.707031 218.511719 141.097656 220.5 141.097656 C 222.488281 141.097656 224.097656 142.707031 224.097656 144.691406 " fill-opacity="1" fill-rule="nonzero"/></g><path fill="#000000" d="M 209.207031 151.167969 C 206.871094 152.992188 206.457031 156.363281 208.277344 158.695312 L 214.160156 166.230469 C 216.496094 164.410156 216.910156 161.039062 215.089844 158.703125 Z M 230.929688 172.890625 C 233.261719 171.070312 233.675781 167.699219 231.855469 165.363281 L 225.972656 157.828125 C 223.640625 159.652344 223.222656 163.019531 225.046875 165.355469 Z M 209.195312 172.890625 C 211.015625 175.226562 214.386719 175.640625 216.71875 173.820312 L 224.257812 167.9375 C 222.433594 165.601562 219.0625 165.1875 216.730469 167.011719 Z M 223.390625 157.050781 C 221.058594 158.875 217.6875 158.457031 215.867188 156.125 L 223.402344 150.242188 C 225.734375 148.417969 229.105469 148.835938 230.929688 151.167969 L 223.390625 157.050781 " fill-opacity="1" fill-rule="nonzero"/><g fill="#000000" fill-opacity="1"><g transform="translate(125.456247, 188.656173)"><g><path d="M 60.078125 -53.34375 C 60.253906 -53.34375 60.34375 -53.171875 60.34375 -52.828125 C 60.34375 -52.484375 60.253906 -52.3125 60.078125 -52.3125 C 57.691406 -52.3125 55.957031 -51.65625 54.875 -50.34375 C 53.789062 -49.039062 53.25 -46.910156 53.25 -43.953125 L 53.25 1.03125 C 53.25 1.132812 53.109375 1.210938 52.828125 1.265625 C 52.546875 1.328125 52.347656 1.300781 52.234375 1.1875 L 12.96875 -46.34375 L 12.203125 -47.1875 L 12.203125 -9.296875 C 12.203125 -6.335938 12.726562 -4.21875 13.78125 -2.9375 C 14.832031 -1.664062 16.523438 -1.03125 18.859375 -1.03125 C 19.023438 -1.03125 19.109375 -0.859375 19.109375 -0.515625 C 19.109375 -0.171875 19.023438 0 18.859375 0 C 17.441406 0 16.363281 -0.0234375 15.625 -0.078125 L 11.34375 -0.171875 L 7 -0.078125 C 6.195312 -0.0234375 5.03125 0 3.5 0 C 3.382812 0 3.328125 -0.171875 3.328125 -0.515625 C 3.328125 -0.859375 3.382812 -1.03125 3.5 -1.03125 C 5.945312 -1.03125 7.679688 -1.664062 8.703125 -2.9375 C 9.722656 -4.21875 10.234375 -6.335938 10.234375 -9.296875 L 10.234375 -49.25 C 8.015625 -51.289062 5.769531 -52.3125 3.5 -52.3125 C 3.332031 -52.3125 3.25 -52.484375 3.25 -52.828125 C 3.25 -53.171875 3.332031 -53.34375 3.5 -53.34375 L 6.65625 -53.25 C 7.34375 -53.195312 8.28125 -53.171875 9.46875 -53.171875 C 10.71875 -53.171875 11.738281 -53.195312 12.53125 -53.25 C 13.332031 -53.3125 13.960938 -53.34375 14.421875 -53.34375 C 14.878906 -53.34375 15.207031 -53.242188 15.40625 -53.046875 C 15.601562 -52.847656 15.929688 -52.40625 16.390625 -51.71875 C 17.066406 -50.695312 17.75 -49.757812 18.4375 -48.90625 L 51.296875 -8.53125 L 51.296875 -43.953125 C 51.296875 -46.910156 50.796875 -49.039062 49.796875 -50.34375 C 48.796875 -51.65625 47.132812 -52.3125 44.8125 -52.3125 C 44.695312 -52.3125 44.640625 -52.484375 44.640625 -52.828125 C 44.640625 -53.171875 44.695312 -53.34375 44.8125 -53.34375 L 48.140625 -53.25 C 49.835938 -53.132812 51.226562 -53.078125 52.3125 -53.078125 C 53.34375 -53.078125 54.765625 -53.132812 56.578125 -53.25 Z M 60.078125 -53.34375 "/></g></g></g><g fill="#000000" fill-opacity="1"><g transform="translate(167.796088, 188.660524)"><g/></g></g><g fill="#000000" fill-opacity="1"><g transform="translate(187.764837, 188.660524)"><g><path d="M 35.0625 -54.25 C 38.644531 -54.25 41.65625 -53.992188 44.09375 -53.484375 C 46.539062 -52.972656 48.988281 -52.09375 51.4375 -50.84375 C 51.832031 -50.613281 52.054688 -50.410156 52.109375 -50.234375 C 52.171875 -50.066406 52.257812 -49.640625 52.375 -48.953125 L 53.390625 -38.8125 C 53.390625 -38.632812 53.234375 -38.53125 52.921875 -38.5 C 52.609375 -38.476562 52.425781 -38.550781 52.375 -38.71875 C 49.757812 -48.21875 43.898438 -52.96875 34.796875 -52.96875 C 30.023438 -52.96875 25.816406 -51.914062 22.171875 -49.8125 C 18.535156 -47.707031 15.722656 -44.707031 13.734375 -40.8125 C 11.742188 -36.914062 10.75 -32.378906 10.75 -27.203125 C 10.75 -22.253906 11.84375 -17.71875 14.03125 -13.59375 C 16.21875 -9.476562 19.171875 -6.222656 22.890625 -3.828125 C 26.617188 -1.441406 30.675781 -0.25 35.0625 -0.25 C 39.71875 -0.25 43.492188 -1.382812 46.390625 -3.65625 C 49.296875 -5.9375 51.515625 -9.410156 53.046875 -14.078125 C 53.046875 -14.191406 53.191406 -14.25 53.484375 -14.25 C 53.878906 -14.25 54.078125 -14.160156 54.078125 -13.984375 L 53.21875 -4.609375 C 53.164062 -3.921875 53.082031 -3.492188 52.96875 -3.328125 C 52.851562 -3.160156 52.625 -2.960938 52.28125 -2.734375 C 49.320312 -1.304688 46.550781 -0.3125 43.96875 0.25 C 41.382812 0.820312 38.414062 1.109375 35.0625 1.109375 C 29.082031 1.109375 23.75 -0.0664062 19.0625 -2.421875 C 14.375 -4.785156 10.71875 -8.097656 8.09375 -12.359375 C 5.476562 -16.628906 4.171875 -21.523438 4.171875 -27.046875 C 4.171875 -32.390625 5.507812 -37.117188 8.1875 -41.234375 C 10.863281 -45.359375 14.546875 -48.554688 19.234375 -50.828125 C 23.921875 -53.109375 29.195312 -54.25 35.0625 -54.25 Z M 35.0625 -54.25 "/></g></g></g><path stroke-linecap="butt" transform="matrix(-0.0129418, 0.749888, -0.749888, -0.0129418, 190.017062, 110.996762)" fill="none" stroke-linejoin="miter" d="M 0.00240793 2.002172 L 157.916544 2.001203 " stroke="#000000" stroke-width="4" stroke-opacity="1" stroke-miterlimit="4"/></svg>