<?xml version="1.0" standalone="no"?>
<!DOCTYPE svg PUBLIC "-//W3C//DTD SVG 20010904//EN"
 "http://www.w3.org/TR/2001/REC-SVG-20010904/DTD/svg10.dtd">
<svg version="1.0" xmlns="http://www.w3.org/2000/svg"
 width="920.000000pt" height="512.000000pt" viewBox="0 0 920.000000 512.000000"
 preserveAspectRatio="xMidYMid meet">

<g transform="translate(0.000000,512.000000) scale(0.100000,-0.100000)"
fill="#000000" stroke="none">
<path d="M2358 5110 c-150 -26 -283 -162 -308 -316 -13 -79 -13 -1630 0 -1708
20 -126 103 -234 220 -290 l65 -31 885 0 885 0 58 27 c79 37 128 78 170 141
70 105 68 66 65 1028 l-3 864 -31 65 c-56 117 -164 200 -290 220 -71 12 -1647
11 -1716 0z m1062 -675 l0 -295 295 0 295 0 0 -200 0 -200 -295 0 -295 0 0
-295 0 -295 -200 0 -201 0 3 295 3 295 -298 0 -297 0 2 198 3 197 293 3 292 2
0 288 c0 159 3 292 7 295 3 4 93 7 200 7 l193 0 0 -295z"/>
<path d="M5118 5110 c-119 -20 -228 -105 -282 -220 l-31 -65 0 -885 0 -885 32
-67 c40 -85 106 -151 191 -191 l67 -32 885 0 885 0 65 31 c120 57 199 161 220
291 13 77 13 1629 0 1707 -26 159 -157 290 -317 316 -70 12 -1647 11 -1715 0z
m1650 -1172 l2 -198 -790 0 -790 0 0 200 0 200 788 -2 787 -3 3 -197z"/>
<path d="M2325 2346 c-145 -46 -247 -159 -275 -305 -13 -70 -14 -1634 0 -1714
26 -160 157 -291 316 -317 78 -13 1630 -13 1707 0 130 21 234 100 291 220 l31
65 0 885 0 885 -27 58 c-37 79 -78 129 -141 170 -108 71 -56 67 -1006 66 -662
0 -865 -3 -896 -13z m1108 -679 l207 208 137 -138 138 -137 -208 -208 -207
-207 210 -210 210 -210 -140 -140 -140 -140 -210 210 -210 210 -210 -210 -210
-210 -137 138 -138 137 210 210 210 210 -210 210 -210 210 140 140 140 140
210 -210 210 -210 208 207z"/>
<path d="M5075 2343 c-123 -38 -223 -140 -260 -265 -14 -48 -15 -153 -13 -919
l3 -864 31 -65 c56 -118 163 -199 290 -220 78 -13 1629 -13 1707 0 160 26 291
157 317 316 13 81 13 1644 0 1715 -23 123 -106 229 -220 283 l-65 31 -870 2
c-758 2 -876 0 -920 -14z m1695 -768 l0 -195 -790 0 -790 0 0 195 0 195 790 0
790 0 0 -195z m-2 -787 l2 -198 -790 0 -790 0 0 198 0 199 788 -1 787 -1 3
-197z"/>
</g>
</svg>
