<?xml version="1.0" standalone="no"?>
<!DOCTYPE svg PUBLIC "-//W3C//DTD SVG 20010904//EN"
 "http://www.w3.org/TR/2001/REC-SVG-20010904/DTD/svg10.dtd">
<svg version="1.0" xmlns="http://www.w3.org/2000/svg"
 width="920.000000pt" height="512.000000pt" viewBox="0 0 920.000000 512.000000"
 preserveAspectRatio="xMidYMid meet">

<g transform="translate(0.000000,512.000000) scale(0.100000,-0.100000)"
fill="#000000" stroke="none">
<path d="M2218 4757 c-62 -20 -123 -70 -149 -123 l-24 -49 -3 -1494 c-3 -1667
-7 -1563 66 -1638 21 -21 56 -48 77 -58 39 -19 69 -20 938 -23 l897 -2 0 -280
0 -279 -372 -3 c-408 -3 -399 -2 -462 -64 -66 -67 -86 -174 -47 -260 23 -49
88 -107 140 -122 53 -16 2572 -17 2636 -1 55 14 122 70 146 123 39 86 19 193
-47 260 -63 62 -54 61 -461 64 l-373 3 0 279 0 279 898 3 c868 3 898 4 937 23
21 10 56 37 77 58 73 75 69 -29 66 1638 l-3 1494 -24 48 c-28 57 -95 111 -158
126 -63 16 -4705 14 -4755 -2z m4572 -1687 l0 -1330 -2190 0 -2190 0 0 1330 0
1330 2190 0 2190 0 0 -1330z"/>
<path d="M4807 4016 c-45 -17 -64 -32 -82 -65 -12 -24 -112 -330 -424 -1299
-61 -189 -111 -358 -111 -375 0 -143 187 -200 273 -85 30 41 547 1637 547
1690 0 39 -31 91 -70 119 -35 25 -88 31 -133 15z"/>
<path d="M3985 3576 c-119 -53 -774 -360 -792 -372 -78 -50 -88 -177 -20 -242
27 -25 487 -246 790 -379 90 -40 137 -39 188 4 63 54 76 127 35 198 -23 39
-38 48 -233 140 -114 54 -232 109 -262 122 -29 13 -52 26 -50 28 2 2 116 56
254 120 137 64 258 124 269 133 45 41 58 122 28 182 -35 71 -129 101 -207 66z"/>
<path d="M5060 3568 c-81 -54 -93 -178 -24 -240 11 -9 132 -69 269 -133 138
-64 252 -118 254 -120 2 -2 -21 -15 -50 -28 -30 -13 -148 -68 -262 -122 -195
-92 -210 -101 -233 -140 -60 -103 7 -228 123 -229 42 0 102 25 453 188 252
117 417 200 437 218 60 58 63 155 5 218 -19 21 -149 87 -427 216 -447 209
-477 218 -545 172z"/>
</g>
</svg>
