<?xml version="1.0" standalone="no"?>
<!DOCTYPE svg PUBLIC "-//W3C//DTD SVG 20010904//EN"
 "http://www.w3.org/TR/2001/REC-SVG-20010904/DTD/svg10.dtd">
<svg version="1.0" xmlns="http://www.w3.org/2000/svg"
 width="512.000000pt" height="512.000000pt" viewBox="0 0 512.000000 512.000000"
 preserveAspectRatio="xMidYMid meet">

<g transform="translate(0.000000,512.000000) scale(0.100000,-0.100000)"
fill="#000000" stroke="none">
<path d="M1882 4533 c-85 -42 -84 -176 2 -217 21 -10 60 -16 105 -16 l71 0 0
-417 0 -418 -621 -1035 c-342 -569 -634 -1060 -649 -1090 -41 -80 -70 -185
-77 -270 -18 -234 132 -415 394 -477 73 -17 159 -18 1453 -18 1541 0 1449 -4
1603 73 247 124 314 400 167 692 -15 30 -307 521 -649 1090 l-621 1035 0 418
0 417 71 0 c45 0 84 6 105 16 87 42 87 176 0 218 -30 14 -102 16 -678 16 -573
0 -647 -2 -676 -17z m928 -682 l0 -449 400 -667 c220 -367 400 -668 400 -671
0 -2 -472 -4 -1050 -4 -577 0 -1050 2 -1050 4 0 3 180 304 400 671 l400 667 0
449 0 449 250 0 250 0 0 -449z"/>
</g>
</svg>
